<svg width="16" height="16" xmlns="http://www.w3.org/2000/svg" xmlns:xlink="http://www.w3.org/1999/xlink" overflow="hidden"><defs><clipPath id="clip0"><rect x="656" y="352" width="16" height="16"/></clipPath></defs><g clip-path="url(#clip0)" transform="translate(-656 -352)"><path d="M8 0C3.58172 0 0 3.13401 0 7 0 10.866 3.58172 14 8 14 12.4183 14 16 10.866 16 7 16 3.13401 12.4183 0 8 0ZM6.24191 3.28901C6.69703 3.27089 6.84245 3.26646 8.00122 3.26646L7.99988 3.26646C9.15901 3.26646 9.3039 3.27089 9.75901 3.28901 10.2132 3.30721 10.5235 3.37014 10.7955 3.46246 11.0764 3.55774 11.3137 3.68529 11.551 3.89296 11.7884 4.10048 11.9341 4.30877 12.0435 4.55431 12.1484 4.79169 12.2204 5.06299 12.2417 5.46043 12.2621 5.85866 12.2675 5.98591 12.2675 6.99983 12.2675 8.01375 12.2621 8.14069 12.2417 8.53891 12.2204 8.9362 12.1484 9.20757 12.0435 9.44503 11.9341 9.6905 11.7884 9.89879 11.551 10.1063 11.314 10.314 11.0763 10.4418 10.7957 10.5372 10.5243 10.6295 10.2139 10.6924 9.75963 10.7106 9.30452 10.7288 9.15954 10.7332 8.00068 10.7332 6.84201 10.7332 6.69667 10.7288 6.24156 10.7106 5.78742 10.6924 5.47728 10.6295 5.20581 10.5372 4.92536 10.4418 4.68732 10.314 4.45025 10.1063 4.213 9.89879 4.06722 9.6905 3.95815 9.44495 3.85273 9.20757 3.78082 8.93628 3.75993 8.53883 3.73931 8.14061 3.73415 8.01375 3.73415 6.99983 3.73415 5.98591 3.73949 5.85858 3.75984 5.46036 3.78029 5.06306 3.85229 4.79169 3.95807 4.55424 4.0674 4.30877 4.21318 4.10048 4.45051 3.89296 4.68767 3.68537 4.92572 3.55782 5.20634 3.46246 5.47764 3.37014 5.78768 3.30721 6.24191 3.28901Z" fill="#4F4F4F" fill-rule="evenodd" transform="matrix(1 0 0 1.14286 656 352)"/><path d="M7.61506 3.93941 7.85561 3.93937 7.99781 3.93941C9.13703 3.93941 9.27205 3.94299 9.72192 3.96088 10.1379 3.97752 10.3637 4.03834 10.5141 4.08944 10.7132 4.15711 10.8552 4.238 11.0044 4.36867 11.1538 4.49934 11.2462 4.62378 11.3237 4.79801 11.3821 4.92945 11.4517 5.12701 11.4707 5.49102 11.4911 5.88458 11.4955 6.0028 11.4955 6.99914 11.4955 7.99549 11.4911 8.11371 11.4707 8.50727 11.4516 8.87127 11.3821 9.06883 11.3237 9.20028 11.2464 9.3745 11.1538 9.49856 11.0044 9.62915 10.8551 9.75982 10.7133 9.84071 10.5141 9.90837 10.3639 9.95971 10.1379 10.0204 9.72192 10.037 9.27214 10.0549 9.13703 10.0588 7.99781 10.0588 6.85851 10.0588 6.72349 10.0549 6.27371 10.037 5.8577 10.0202 5.63192 9.9594 5.48143 9.9083 5.28232 9.84063 5.1401 9.75974 4.99076 9.62907 4.84143 9.4984 4.74898 9.37427 4.67147 9.19997 4.61307 9.06852 4.54347 8.87096 4.52453 8.50696 4.50409 8.1134 4.5 7.99517 4.5 6.99821 4.5 6.00124 4.50409 5.88364 4.52453 5.49008 4.54356 5.12608 4.61307 4.92852 4.67147 4.79692 4.7488 4.62269 4.84143 4.49825 4.99076 4.36758 5.1401 4.23691 5.28232 4.15602 5.48143 4.0882 5.63183 4.03687 5.8577 3.9762 6.27371 3.95948 6.66731 3.94392 6.81985 3.93925 7.61506 3.93848L7.61506 3.93941ZM10.2754 4.55946C9.99268 4.55946 9.76335 4.7599 9.76335 5.00731 9.76335 5.25465 9.99268 5.45532 10.2754 5.45532 10.558 5.45532 10.7874 5.25465 10.7874 5.00731 10.7874 4.75997 10.558 4.5593 10.2754 4.5593L10.2754 4.55946ZM5.80676 6.99981C5.80676 5.94104 6.78779 5.08261 7.9978 5.08257 9.20786 5.08257 10.1887 5.94101 10.1887 6.99981 10.1887 8.05861 9.20795 8.91667 7.99789 8.91667 6.78783 8.91667 5.80676 8.05861 5.80676 6.99981Z" fill="#4F4F4F" fill-rule="evenodd" transform="matrix(1 0 0 1.14286 656 352)"/><path d="M8.00036 5.75537C8.78579 5.75537 9.4226 6.3125 9.4226 6.99983 9.4226 7.68708 8.78579 8.24429 8.00036 8.24429 7.21484 8.24429 6.57812 7.68708 6.57812 6.99983 6.57812 6.3125 7.21484 5.75537 8.00036 5.75537Z" fill="#4F4F4F" transform="matrix(1 0 0 1.14286 656 352)"/></g></svg>